<svg xmlns="http://www.w3.org/2000/svg" xmlns:xlink="http://www.w3.org/1999/xlink" version="1.1" x="0px" y="0px" viewBox="0 0 100 100" enable-background="new 0 0 100 100" xml:space="preserve"><path d="M96.621,17.976H3.369C1.504,17.976,0,19.484,0,21.348v57.305c0,1.861,1.504,3.372,3.369,3.372h93.262  c1.867,0,3.369-1.511,3.369-3.372V21.348C100,19.484,98.492,17.976,96.621,17.976z M95.603,78.091H4.4V21.909h91.202V78.091z   M42.346,68.751h-31.25v-37.5h31.25V68.751z M88.342,52.345H47.717v-4.688h40.625V52.345z M88.342,60.548H47.717V55.86h40.625  V60.548z M88.342,68.751H47.717v-4.688h40.625V68.751z"></path></svg>