<?xml version="1.0" standalone="yes"?>

<svg version="1.1" viewBox="0.0 0.0 960.0 720.0" fill="none" stroke="none" stroke-linecap="square" stroke-miterlimit="10" xmlns="http://www.w3.org/2000/svg" xmlns:xlink="http://www.w3.org/1999/xlink"><clipPath id="p.0"><path d="m0 0l960.0 0l0 720.0l-960.0 0l0 -720.0z" clip-rule="nonzero"></path></clipPath><g clip-path="url(#p.0)"><path fill="#000000" fill-opacity="0.0" d="m0 0l960.0 0l0 720.0l-960.0 0z" fill-rule="evenodd"></path><path fill="#000000" fill-opacity="0.0" d="m56.249344 -96.42519l324.62994 0l0 446.77167l-324.62994 0z" fill-rule="evenodd"></path><path fill="#000000" fill-opacity="0.0" d="m380.87927 36.96063l110.897644 0l0 180.0l-110.897644 0z" fill-rule="evenodd"></path><path fill="#000000" d="m500.75427 492.89813q0 17.4375 1.15625 25.515625q1.171875 8.0625 3.90625 12.75q2.734375 4.671875 8.0625 7.796875q5.34375 3.125 17.3125 6.25l0 12.75l-109.828125 0l0 -12.75q16.140625 -4.171875 21.609375 -9.234375q5.46875 -5.078125 7.15625 -14.453125q1.6875 -9.375 1.6875 -28.625l0 -225.125q0 -17.953125 -1.296875 -26.140625q-1.296875 -8.203125 -4.296875 -12.75q-2.984375 -4.5625 -7.9375 -7.296875q-4.9375 -2.734375 -16.921875 -6.125l0 -12.75l109.828125 0l0 12.75q-11.453125 2.875 -16.53125 5.734375q-5.0625 2.859375 -8.0625 7.15625q-2.984375 4.296875 -4.421875 12.890625q-1.421875 8.578125 -1.421875 26.53125l0 225.125z" fill-rule="nonzero"></path></g></svg>

