<?xml version="1.0" standalone="yes"?>

<svg version="1.1" viewBox="0.0 0.0 960.0 720.0" fill="none" stroke="none" stroke-linecap="square" stroke-miterlimit="10" xmlns="http://www.w3.org/2000/svg" xmlns:xlink="http://www.w3.org/1999/xlink"><clipPath id="p.0"><path d="m0 0l960.0 0l0 720.0l-960.0 0l0 -720.0z" clip-rule="nonzero"></path></clipPath><g clip-path="url(#p.0)"><path fill="#000000" fill-opacity="0.0" d="m0 0l960.0 0l0 720.0l-960.0 0z" fill-rule="evenodd"></path><path fill="#000000" fill-opacity="0.0" d="m176.24934 -96.42519l324.62994 0l0 446.77167l-324.62994 0z" fill-rule="evenodd"></path><path fill="#000000" fill-opacity="0.0" d="m120.0 -107.67716l496.59845 0l0 446.77164l-496.59845 0z" fill-rule="evenodd"></path><path fill="#0000ff" d="m239.34375 218.65096l7.8125 0q9.890625 0 18.078125 -3.125q8.203125 -3.125 18.34375 -11.703125q10.15625 -8.59375 30.984375 -32.015625q24.984375 -27.84375 34.09375 -40.34375q11.453125 -14.828117 15.359375 -24.984367q3.109375 -7.546875 3.109375 -14.5625q0 -10.421875 -5.984375 -15.234375q-5.984375 -4.8125 -16.390625 -5.859375l0 -12.750004l113.46875 0l0 12.750004q-8.328125 1.828125 -16.40625 6.390625q-8.0625 4.546875 -16.515625 12.484375q-8.453125 7.9375 -24.859375 26.15625l-87.4375 98.37499l94.734375 137.67189q15.09375 21.859375 23.671875 30.578125q8.59375 8.71875 16.40625 12.765625q7.8125 4.03125 16.65625 5.328125l0 12.75l-114.765625 0l0 -12.75q9.625 -0.78125 14.046875 -3.640625q4.421875 -2.875 4.421875 -8.59375q0 -4.6875 -3.0 -11.3125q-2.984375 -6.640625 -9.484375 -16.015625l-60.640625 -90.3125q-10.671875 -16.125015 -15.625 -21.32814q-4.9375 -5.21875 -10.671875 -7.6875q-5.71875 -2.46875 -15.34375 -2.46875l-13.796875 0l0 109.04689q0 17.4375 1.171875 25.515625q1.171875 8.0625 3.90625 12.75q2.734375 4.671875 8.0625 7.796875q5.34375 3.125 17.3125 6.25l0 12.75l-109.578125 0l0 -12.75q16.140625 -4.171875 21.609375 -9.234375q5.46875 -5.078125 7.15625 -14.453125q1.6875 -9.375 1.6875 -28.625l0 -225.125q0 -17.953125 -1.296875 -26.140625q-1.296875 -8.203125 -4.296875 -12.75q-2.984375 -4.5625 -7.9375 -7.296875q-4.9375 -2.734375 -16.921875 -6.125l0 -12.750004l109.578125 0l0 12.750004q-11.453125 2.875 -16.53125 5.734375q-5.078125 2.859375 -8.078125 7.15625q-2.984375 4.296875 -4.421875 12.890625q-1.421875 8.578125 -1.421875 26.53125l-0.265625 95.51562z" fill-rule="nonzero"></path><path fill="#000000" fill-opacity="0.0" d="m420.46457 83.50394l496.59842 0l0 446.77164l-496.59842 0z" fill-rule="evenodd"></path><path fill="#0000ff" d="m700.65204 256.8008l0 72.09375l-25.765625 0q-6.25 -22.640625 -15.875 -36.046875q-9.625 -13.40625 -22.390625 -19.125q-12.75 -5.734375 -30.703125 -5.734375q-26.8125 0 -47.765625 17.828125q-20.9375 17.828125 -32.921875 53.625q-11.96875 35.78125 -11.96875 86.53125q0 51.0 9.890625 87.046906q9.890625 36.046875 29.140625 54.40625q19.265625 18.34375 47.375 18.34375q21.34375 0 34.875 -6.109375q13.53125 -6.125 22.765625 -19.390625q9.25 -13.28125 17.578125 -39.046875l25.765625 0l0 74.4375q-24.46875 6.5 -50.109375 9.75q-25.625 3.265625 -56.34375 3.265625q-66.09375 0 -99.93747 -44.765625q-33.828125 -44.765625 -33.828125 -133.51566q0 -55.6875 17.5625 -97.59375q17.578125 -41.90625 51.671844 -64.796875q34.09375 -22.90625 81.453125 -22.90625q23.6875 0 43.71875 2.46875q20.046875 2.46875 45.8125 9.234375z" fill-rule="nonzero"></path></g></svg>

