<svg xmlns="http://www.w3.org/2000/svg" xmlns:xlink="http://www.w3.org/1999/xlink" version="1.1" x="0px" y="0px" viewBox="0 0 64 80" enable-background="new 0 0 64 64" xml:space="preserve"><g><g><path d="M50.923,17.615c-0.051-0.122-0.125-0.231-0.217-0.323l-9.998-9.999c-0.092-0.092-0.201-0.166-0.323-0.216    C40.265,7.027,40.134,7,40,7H14c-0.552,0-1,0.448-1,1v48c0,0.553,0.448,1,1,1h36c0.553,0,1-0.447,1-1V18    C51,17.867,50.973,17.736,50.923,17.615z M41,10.414L47.586,17H41V10.414z M15,55V9h24v9c0,0.552,0.447,1,1,1h9v36H15z"/><path d="M21,26c0,2.757,2.243,5,5,5c1.654,0,3,1.346,3,3s-1.346,3-3,3h-2c-0.552,0-1,0.447-1,1s0.448,1,1,1h2c2.757,0,5-2.243,5-5    c0-1.641-0.806-3.088-2.031-4C30.194,29.088,31,27.641,31,26c0-2.757-2.243-5-5-5c-1.654,0-3-1.346-3-3s1.346-3,3-3h2    c0.552,0,1-0.448,1-1s-0.448-1-1-1h-2c-2.757,0-5,2.243-5,5c0,1.641,0.806,3.088,2.031,4C21.806,22.912,21,24.359,21,26z M26,23    c1.654,0,3,1.346,3,3s-1.346,3-3,3s-3-1.346-3-3S24.346,23,26,23z"/><path d="M42,29h-6c-0.553,0-1,0.448-1,1s0.447,1,1,1h6c0.553,0,1-0.448,1-1S42.553,29,42,29z"/><path d="M42,35h-6c-0.553,0-1,0.447-1,1s0.447,1,1,1h6c0.553,0,1-0.447,1-1S42.553,35,42,35z"/><path d="M42,41h-6c-0.553,0-1,0.447-1,1s0.447,1,1,1h6c0.553,0,1-0.447,1-1S42.553,41,42,41z"/><path d="M42,47H22c-0.552,0-1,0.447-1,1s0.448,1,1,1h20c0.553,0,1-0.447,1-1S42.553,47,42,47z"/></g></g><text x="0" y="79" fill="#000000" font-size="5px" font-weight="bold" font-family="'Helvetica Neue', Helvetica, Arial-Unicode, Arial, Sans-serif">Created by Ralf Schmitzer</text><text x="0" y="84" fill="#000000" font-size="5px" font-weight="bold" font-family="'Helvetica Neue', Helvetica, Arial-Unicode, Arial, Sans-serif">from the Noun Project</text></svg>